<svg width="512" height="512" viewBox="0 0 512 512" fill="none" xmlns="http://www.w3.org/2000/svg">
<g clip-path="url(#clip0_1837_2160)">
<path fill-rule="evenodd" clip-rule="evenodd" d="M413.711 -57C549.977 -57 675 38.0236 675 174.333C675 313.881 553.215 418 413.711 418C274.941 418 155 313.146 155 174.333C155 38.7763 278.197 -57 413.711 -57Z" fill="url(#paint0_radial_1837_2160)"/>
<path d="M46.1 171L85.72 70.2H96.5L135.14 171H125.34L113.72 139.36H67.8L55.9 171H46.1ZM71.02 131.24H110.5L90.76 78.32L71.02 131.24Z" fill="url(#paint1_linear_1837_2160)"/>
<path d="M174.34 171V70.2H183.86V162.88H237.9V171H174.34Z" fill="url(#paint2_linear_1837_2160)"/>
<path d="M277.34 171V70.2H344.4V78.32H286.86V114.72H338.8V122.84H286.86V162.88H345.8V171H277.34Z" fill="url(#paint3_linear_1837_2160)"/>
<path d="M419.56 126.48L390.3 171H379.52L414.24 119.2L380.92 70.2H391.98L419.56 112.62L447.28 70.2H458.34L425.3 119.2L459.88 171H448.96L419.56 126.48Z" fill="url(#paint4_linear_1837_2160)"/>
<path d="M55.86 308.88H80.08C85.3067 308.88 89.8333 308.647 93.66 308.18C97.58 307.713 100.8 306.78 103.32 305.38C105.84 303.887 107.707 301.833 108.92 299.22C110.227 296.513 110.88 292.967 110.88 288.58C110.88 284.38 110.18 281.02 108.78 278.5C107.38 275.887 105.373 273.88 102.76 272.48C100.147 271.08 97.02 270.147 93.38 269.68C89.74 269.12 85.68 268.84 81.2 268.84H55.86V308.88ZM55.86 260.72H79.94C84.8867 260.72 89.04 260.3 92.4 259.46C95.76 258.62 98.4667 257.407 100.52 255.82C102.573 254.14 104.02 252.133 104.86 249.8C105.793 247.373 106.26 244.62 106.26 241.54C106.26 238.367 105.747 235.707 104.72 233.56C103.693 231.32 102.06 229.547 99.82 228.24C97.58 226.84 94.64 225.86 91 225.3C87.4533 224.647 83.0667 224.32 77.84 224.32H55.86V260.72ZM46.34 317V216.2H82.74C88.62 216.2 93.66 216.807 97.86 218.02C102.06 219.233 105.467 220.96 108.08 223.2C110.787 225.44 112.747 228.147 113.96 231.32C115.173 234.4 115.78 237.807 115.78 241.54C115.78 245.087 115.313 248.167 114.38 250.78C113.447 253.3 112.233 255.447 110.74 257.22C109.247 258.9 107.52 260.253 105.56 261.28C103.693 262.213 101.733 262.867 99.68 263.24V263.52C106.68 264.547 111.86 267.3 115.22 271.78C118.673 276.26 120.4 281.86 120.4 288.58C120.4 293.807 119.56 298.24 117.88 301.88C116.293 305.52 114.053 308.46 111.16 310.7C108.267 312.94 104.767 314.573 100.66 315.6C96.6467 316.533 92.26 317 87.5 317H46.34Z" fill="url(#paint5_linear_1837_2160)"/>
<path d="M220.34 317V216.2H287.4V224.32H229.86V260.72H281.8V268.84H229.86V308.88H288.8V317H220.34Z" fill="url(#paint6_linear_1837_2160)"/>
<path d="M386.34 317V216.2H420.78C423.58 216.2 426.333 216.293 429.04 216.48C431.747 216.573 434.407 216.9 437.02 217.46C439.633 217.927 442.153 218.673 444.58 219.7C447.1 220.727 449.527 222.08 451.86 223.76C455.22 226.187 457.973 229.173 460.12 232.72C462.267 236.173 463.947 239.86 465.16 243.78C466.467 247.607 467.353 251.527 467.82 255.54C468.38 259.46 468.66 263.1 468.66 266.46C468.66 269.82 468.427 273.227 467.96 276.68C467.587 280.133 466.933 283.54 466 286.9C465.067 290.167 463.807 293.34 462.22 296.42C460.727 299.407 458.813 302.16 456.48 304.68C454.147 307.293 451.58 309.393 448.78 310.98C446.073 312.567 443.18 313.827 440.1 314.76C437.113 315.6 433.987 316.207 430.72 316.58C427.453 316.86 424.14 317 420.78 317H386.34ZM395.86 308.88H418.68C422.973 308.88 426.987 308.647 430.72 308.18C434.547 307.62 438.42 306.313 442.34 304.26C445.7 302.58 448.453 300.293 450.6 297.4C452.747 294.507 454.427 291.38 455.64 288.02C456.947 284.567 457.833 280.973 458.3 277.24C458.86 273.507 459.14 269.913 459.14 266.46C459.14 262.82 458.907 259.133 458.44 255.4C457.973 251.573 457.087 247.98 455.78 244.62C454.473 241.167 452.7 238.04 450.46 235.24C448.22 232.347 445.327 229.967 441.78 228.1C438.793 226.513 435.247 225.487 431.14 225.02C427.033 224.553 422.88 224.32 418.68 224.32H395.86V308.88Z" fill="url(#paint7_linear_1837_2160)"/>
<path d="M210.42 401.74C210.42 394.367 211.4 387.46 213.36 381.02C215.413 374.58 218.4 368.98 222.32 364.22C226.24 359.367 231.093 355.54 236.88 352.74C242.667 349.94 249.34 348.54 256.9 348.54C264.74 348.54 271.6 349.94 277.48 352.74C283.453 355.447 288.4 359.227 292.32 364.08C296.333 368.84 299.32 374.487 301.28 381.02C303.333 387.46 304.36 394.367 304.36 401.74C304.36 409.02 303.333 415.88 301.28 422.32C299.32 428.667 296.38 434.267 292.46 439.12C288.54 443.88 283.64 447.66 277.76 450.46C271.88 453.26 265.067 454.66 257.32 454.66C249.573 454.66 242.76 453.26 236.88 450.46C231 447.66 226.1 443.88 222.18 439.12C218.26 434.267 215.32 428.667 213.36 422.32C211.4 415.88 210.42 409.02 210.42 401.74ZM257.46 446.54C263.993 446.54 269.593 445.327 274.26 442.9C279.02 440.38 282.893 437.067 285.88 432.96C288.96 428.853 291.2 424.093 292.6 418.68C294.093 413.267 294.84 407.62 294.84 401.74C294.84 394.74 293.953 388.487 292.18 382.98C290.5 377.38 288.027 372.62 284.76 368.7C281.493 364.78 277.527 361.793 272.86 359.74C268.193 357.687 262.967 356.66 257.18 356.66C250.74 356.66 245.14 357.92 240.38 360.44C235.713 362.96 231.84 366.32 228.76 370.52C225.773 374.627 223.533 379.387 222.04 384.8C220.64 390.213 219.94 395.86 219.94 401.74C219.94 407.713 220.64 413.407 222.04 418.82C223.533 424.233 225.773 428.993 228.76 433.1C231.84 437.207 235.713 440.473 240.38 442.9C245.14 445.327 250.833 446.54 257.46 446.54Z" fill="url(#paint8_linear_1837_2160)"/>
<path d="M388.52 351.2H398.46L428.84 440.8L459.08 351.2H469.02L434.02 452H423.52L388.52 351.2Z" fill="url(#paint9_linear_1837_2160)"/>
<path d="M56.86 364.08H56.58V452H47.06V351.2H57.84L116.08 439.26H116.36V351.2H125.88V452H114.82L56.86 364.08Z" fill="url(#paint10_linear_1837_2160)"/>
</g>
<defs>
<radialGradient id="paint0_radial_1837_2160" cx="0" cy="0" r="1" gradientUnits="userSpaceOnUse" gradientTransform="translate(415 180.5) rotate(90) scale(237.5 260)">
<stop stop-color="#BFBDEF"/>
<stop offset="1" stop-color="#E8E8FF"/>
</radialGradient>
<linearGradient id="paint1_linear_1837_2160" x1="203.835" y1="-11.1875" x2="-38.9736" y2="190.712" gradientUnits="userSpaceOnUse">
<stop offset="0.0124478" stop-color="#4A4876"/>
<stop offset="1" stop-color="#CAC9FF"/>
</linearGradient>
<linearGradient id="paint2_linear_1837_2160" x1="295.629" y1="-11.1875" x2="64.7556" y2="148.111" gradientUnits="userSpaceOnUse">
<stop offset="0.0124478" stop-color="#4A4876"/>
<stop offset="1" stop-color="#CAC9FF"/>
</linearGradient>
<linearGradient id="paint3_linear_1837_2160" x1="412.232" y1="-11.1875" x2="174.233" y2="169.87" gradientUnits="userSpaceOnUse">
<stop offset="0.0124478" stop-color="#4A4876"/>
<stop offset="1" stop-color="#CAC9FF"/>
</linearGradient>
<linearGradient id="paint4_linear_1837_2160" x1="523.232" y1="-11.1875" x2="285.233" y2="169.87" gradientUnits="userSpaceOnUse">
<stop offset="0.0124478" stop-color="#4A4876"/>
<stop offset="1" stop-color="#CAC9FF"/>
</linearGradient>
<linearGradient id="paint5_linear_1837_2160" x1="194.835" y1="134.812" x2="-47.9736" y2="336.712" gradientUnits="userSpaceOnUse">
<stop offset="0.0124478" stop-color="#4A4876"/>
<stop offset="1" stop-color="#CAC9FF"/>
</linearGradient>
<linearGradient id="paint6_linear_1837_2160" x1="355.232" y1="134.812" x2="117.233" y2="315.87" gradientUnits="userSpaceOnUse">
<stop offset="0.0124478" stop-color="#4A4876"/>
<stop offset="1" stop-color="#CAC9FF"/>
</linearGradient>
<linearGradient id="paint7_linear_1837_2160" x1="548.438" y1="134.812" x2="302.785" y2="356.462" gradientUnits="userSpaceOnUse">
<stop offset="0.0124478" stop-color="#4A4876"/>
<stop offset="1" stop-color="#CAC9FF"/>
</linearGradient>
<linearGradient id="paint8_linear_1837_2160" x1="388.341" y1="269.812" x2="141.551" y2="507.768" gradientUnits="userSpaceOnUse">
<stop offset="0.0124478" stop-color="#4A4876"/>
<stop offset="1" stop-color="#CAC9FF"/>
</linearGradient>
<linearGradient id="paint9_linear_1837_2160" x1="532.232" y1="269.812" x2="294.233" y2="450.87" gradientUnits="userSpaceOnUse">
<stop offset="0.0124478" stop-color="#4A4876"/>
<stop offset="1" stop-color="#CAC9FF"/>
</linearGradient>
<linearGradient id="paint10_linear_1837_2160" x1="209.438" y1="269.812" x2="-36.2154" y2="491.462" gradientUnits="userSpaceOnUse">
<stop offset="0.0124478" stop-color="#4A4876"/>
<stop offset="1" stop-color="#CAC9FF"/>
</linearGradient>
<clipPath id="clip0_1837_2160">
<rect width="512" height="512" rx="256" fill="white"/>
</clipPath>
</defs>
</svg>
